<?xml version="1.0" standalone="no"?>
<!DOCTYPE svg PUBLIC "-//W3C//DTD SVG 20010904//EN"
 "http://www.w3.org/TR/2001/REC-SVG-20010904/DTD/svg10.dtd">
<svg version="1.0" xmlns="http://www.w3.org/2000/svg"
 width="200.000000pt" height="200.000000pt" viewBox="0 0 200.000000 200.000000"
 preserveAspectRatio="xMidYMid meet">
<metadata>
Created by potrace 1.11, written by Peter Selinger 2001-2013
</metadata>
<g transform="translate(0.000000,200.000000) scale(0.100000,-0.100000)"
fill="#000000" stroke="none">
<path d="M874 1897 c-261 -106 -426 -349 -427 -627 -1 -299 198 -569 478 -650
l60 -17 0 -136 1 -136 119 -97 c66 -53 134 -107 151 -120 l31 -24 48 42 c26
24 73 67 104 96 l56 52 -21 18 c-12 9 -45 35 -74 57 -29 22 -57 45 -64 51 -6
6 -23 18 -38 28 l-28 18 61 61 c61 62 149 197 149 229 0 9 4 19 8 22 20 12 37
127 36 241 0 108 -3 129 -31 206 -55 155 -157 281 -295 365 -58 35 -157 74
-190 74 -20 0 -19 -6 -20 178 -1 120 5 117 -114 69z"/>
</g>
</svg>
