<?xml version="1.0" encoding="utf-8"?>
<!-- Generator: Adobe Illustrator 25.2.0, SVG Export Plug-In . SVG Version: 6.00 Build 0)  -->
<svg version="1.1" id="Layer_1" xmlns="http://www.w3.org/2000/svg" xmlns:xlink="http://www.w3.org/1999/xlink" x="0px" y="0px"
	 viewBox="0 0 1571.2 666.3" style="enable-background:new 0 0 1571.2 666.3;" xml:space="preserve">
<style type="text/css">
	.st0{fill:url(#SVGID_1_);}
	.st1{fill:url(#SVGID_2_);}
	.st2{fill:url(#SVGID_3_);}
	.st3{fill:url(#SVGID_4_);}
	.st4{fill:#4D4D4D;}
	.st5{enable-background:new    ;}
	.st6{fill:#BF4BFF;}
</style>
<linearGradient id="SVGID_1_" gradientUnits="userSpaceOnUse" x1="89.12" y1="668" x2="89.12" y2="231.83" gradientTransform="matrix(1 0 0 -1 0 668)">
	<stop  offset="0" style="stop-color:#8FD7FD"/>
	<stop  offset="1" style="stop-color:#48BDFE"/>
</linearGradient>
<path class="st0" d="M178.1,0C76.7,20.3,0,110.5,0,218.3c0,98.2,64.2,184.8,158.2,213.3c4.9,1.6,9.8,2.9,14.8,3.9l5.2,0.6"/>
<linearGradient id="SVGID_2_" gradientUnits="userSpaceOnUse" x1="267.25" y1="577.7" x2="267.25" y2="62.81" gradientTransform="matrix(1 0 0 -1 0 668)">
	<stop  offset="0" style="stop-color:#D792FD"/>
	<stop  offset="1" style="stop-color:#BF4BFF"/>
</linearGradient>
<path class="st1" d="M178.1,526.9l97.8,78.2l69.7-61.7l-75.1-59c54.2-42.2,86-107.2,85.9-175.9c0-103.8-71-191.2-166.9-215.8
	c-3.6-1.1-8.6-1.8-11.4-2.6"/>
<linearGradient id="SVGID_3_" gradientUnits="userSpaceOnUse" x1="178.1636" y1="577.66" x2="178.1636" y2="231.83" gradientTransform="matrix(1 0 0 -1 0 668)">
	<stop  offset="0" style="stop-color:#AC83FF"/>
	<stop  offset="1" style="stop-color:#7849D8"/>
</linearGradient>
<path class="st2" d="M178.1,90.3C108.4,115,71.8,191.5,96.4,261.2c13.5,38.2,43.5,68.2,81.7,81.7v93.2
	c53.6-18.8,89.5-69.5,89.5-126.4c0-58.6-37.1-107.8-89.5-126.3"/>
<linearGradient id="SVGID_4_" gradientUnits="userSpaceOnUse" x1="254.7799" y1="194.28" x2="286.9096" y2="254.6994" gradientTransform="matrix(1 0 0 -1 0 668)">
	<stop  offset="0" style="stop-color:#A632E6"/>
	<stop  offset="7.000000e-02" style="stop-color:#A734E7;stop-opacity:0.97"/>
	<stop  offset="0.17" style="stop-color:#A938E8;stop-opacity:0.88"/>
	<stop  offset="0.29" style="stop-color:#AC40EB;stop-opacity:0.74"/>
	<stop  offset="0.43" style="stop-color:#B04BEF;stop-opacity:0.55"/>
	<stop  offset="0.58" style="stop-color:#B659F4;stop-opacity:0.3"/>
	<stop  offset="0.73" style="stop-color:#BD69FA;stop-opacity:0"/>
</linearGradient>
<path class="st3" d="M270.5,484.6c12-9.4,23-20,32.9-31.6l-69.6-54.2c-10.1,11.3-22,20.9-35.3,28.2l113.6,90.9l0.4-0.3L270.5,484.6z
	"/>
<path class="st4" d="M894.6,398.3l-12.5,35h-50.7l92.8-248h47.3l92.3,248h-50.3L948,248.1l-38.5,108.1h36.6l14.9,42H894.6z"/>
<path class="st4" d="M852.8,226.3l-14.8-41H668.5l15.3,41h48.4v208h51v-208L852.8,226.3z"/>
<path class="st4" d="M1235.1,226.3l-14.8-41h-172.6l15.3,41h49.2v208h51v-208L1235.1,226.3z"/>
<path class="st4" d="M1569.2,304.2c0-24.3-4.4-45.7-13.2-64.2c-8.8-18.6-21.2-32.8-37.3-42.7c-16-9.9-34.4-14.9-55-14.9
	c-20.6,0-39,5-55,14.9c-16.1,9.9-28.5,24.2-37.3,42.7c-8.8,18.6-13.2,40-13.2,64.4v12.2c0.1,23.8,4.6,44.9,13.4,63.2
	s21.3,32.4,37.4,42.3c16,9.9,34.3,14.8,54.8,14.8c6.3,0,12.5-0.5,18.7-1.5l52.8,42.4l32.5-28.8l-41.2-32.3
	c13.3-10.3,23.6-24,31.1-41.1c7.5-17.1,11.2-37.2,11.2-60.3L1569.2,304.2z M1518.2,316.1c-0.1,25.9-4.8,45.5-14,59
	s-22.4,20.2-39.7,20.2c-17.5,0-31-7-40.3-21c-9.3-14-14-33.7-14-59.1v-12.1c0.1-25.9,4.9-45.5,14.2-58.9
	c9.3-13.4,22.6-20.1,39.8-20.1c17.3,0,30.7,6.8,40,20.3c9.3,13.6,14,33.4,14,59.5L1518.2,316.1z"/>
<path class="st4" d="M1322.2,185.3h-51v248h51V185.3z"/>
<path class="st4" d="M588,369.2c0,8.9-3.4,15.8-10.2,20.7s-16.3,7.4-28.5,7.4c-32.8,0-49.2-13.7-49.2-41.1h-51.4
	c0,16.1,4.1,30.2,12.4,42.4s20.3,21.8,36,28.8c15.7,7,33.1,10.5,52.3,10.5c27.5,0,49.5-6.1,65.8-18.4s24.4-29.1,24.4-50.6
	c0-19.3-6.7-35.5-20-48.5c-13.3-13-34.6-23.9-63.7-32.6c-15.8-4.8-27.8-9.9-36-15.4c-8.2-5.5-12.2-12.2-12.2-20.3
	c-0.2-8.3,3.7-16.1,10.5-20.9c6.9-5.3,16.7-7.9,29.2-7.9c13,0,23.1,3.2,30.2,9.5s10.8,15.2,10.8,26.6h51.2c0-14.9-3.8-28.3-11.5-40
	c-7.7-11.7-18.5-20.8-32.4-27.2c-13.9-6.4-29.7-9.7-47.5-9.6c-17.6,0-33.6,3-47.7,8.9c-14.2,5.9-25.1,14.2-32.6,24.7
	c-7.5,10.4-11.5,23.1-11.4,35.9c0,25.9,14.1,46.4,42.4,61.6c10.4,5.6,24.4,11.2,42.2,17c17.8,5.8,30.1,11.2,36.9,16.4
	C584.6,352.2,588,359.6,588,369.2z"/>
<g class="st5">
	<path class="st6" d="M532.7,545.1h-61.2v58.7H467V484.4h74v4.4h-69.6v51.7h61.2V545.1z"/>
</g>
<g class="st5">
	<path class="st6" d="M597.9,518.3l-5.7-0.5c-7.5,0-13.9,2.4-18.9,7.3c-5.1,4.9-8.4,11.7-10,20.5v58.1h-4.4v-88.8h4.4v18.5
		c2.4-6.2,6-11.1,10.8-14.7c4.8-3.6,10.9-5.4,18.1-5.4c2.6,0,4.6,0.3,6.2,0.9L597.9,518.3z"/>
</g>
<g class="st5">
	<path class="st6" d="M669,603.8c-1.1-3.8-1.6-9.2-1.6-16.2c-3.5,5.7-8.3,10.1-14.4,13.2s-12.9,4.7-20.6,4.7
		c-8.2,0-14.8-2.2-19.8-6.7c-5-4.5-7.5-10.3-7.5-17.4c0-8.1,3.7-14.7,11-19.6c7.4-4.9,17.1-7.4,29.3-7.5h21.9v-13
		c0-7.4-2.3-13.2-7-17.3s-11.4-6.2-20.1-6.2c-8.1,0-14.8,2.1-20.3,6.2c-5.4,4.2-8.1,9.3-8.1,15.4l-4.4-0.2c0-7.2,3.2-13.3,9.5-18.4
		c6.3-5,14.1-7.5,23.3-7.5c9.6,0,17.2,2.4,22.8,7.2c5.6,4.8,8.5,11.5,8.7,20.2v42.4c0,9.7,0.8,16.4,2.3,19.9v0.7H669z M632.4,601
		c8.3,0,15.5-1.9,21.5-5.6c6-3.7,10.5-8.9,13.5-15.7v-21.1h-20.5c-12.7,0-22.4,2.5-29.1,7.5c-5.5,4.1-8.2,9.2-8.2,15.3
		c0,5.4,2.2,10,6.5,13.8C620.3,599.1,625.8,601,632.4,601z"/>
	<path class="st6" d="M763.8,603.8h-4.4v-59.6c-0.1-8.9-2-15.5-5.9-19.9c-3.9-4.3-10-6.5-18.4-6.5c-9.7,0-17.7,4.3-23.9,12.9
		c-3.7,5.1-6.1,10.8-7.3,17v56.1h-4.5v-88.8h4.5v21c3-7.2,7.3-12.8,12.9-16.7s11.8-5.9,18.5-5.9c7.4,0,13.5,1.6,18.3,4.9
		c4.7,3.3,7.8,8.6,9.3,16.1c2.6-6.4,6.9-11.5,12.8-15.3c5.9-3.8,12.5-5.7,19.9-5.7c9.6,0,16.7,2.7,21.4,8.1s7,13.5,7.1,24.4v57.9
		h-4.4v-57.5c0-9.7-2-16.9-5.9-21.6c-3.9-4.7-10-7-18.4-6.8c-10.8,0.2-19.3,4.5-25.6,12.9c-3.6,4.9-5.6,9.6-5.9,14.1V603.8z"/>
	<path class="st6" d="M882.8,605.5c-7.2,0-13.7-1.9-19.7-5.8s-10.7-9.1-14.1-15.9c-3.4-6.7-5.1-14.2-5.1-22.4v-3.7
		c0-8.2,1.6-15.7,4.9-22.6c3.3-6.8,7.8-12.2,13.5-16c5.7-3.8,12-5.7,18.8-5.7c9.9,0,18,3.5,24.3,10.6c6.3,7.1,9.4,16.3,9.4,27.8v4.7
		h-66.5v4.8c0,7.2,1.5,13.9,4.6,20s7.2,11,12.6,14.5c5.3,3.5,11.1,5.2,17.3,5.2c6,0,11-1,15.2-3s7.9-5,11.1-9.2l3.1,2.2
		C905.7,600.7,895.9,605.5,882.8,605.5z M881.2,517.9c-8.6,0-16,3.2-22,9.6c-6,6.4-9.5,14.6-10.6,24.6h61.9V551
		c0-6-1.3-11.6-3.8-16.8s-6-9.2-10.5-12.1C891.7,519.3,886.7,517.9,881.2,517.9z"/>
	<path class="st6" d="M951.5,578.1l4.8,19.1l26-82.2h4.5l25.8,82.2l5-19.1l18-63.1h5.2l-25.8,88.8h-4.4l-21.9-66.7l-4.2-15.9
		l-4.5,15.9l-21.6,66.7H954l-25.8-88.8h5.1L951.5,578.1z"/>
	<path class="st6" d="M1056,557.7c0-8.5,1.6-16.1,4.9-22.8c3.3-6.8,7.8-12,13.8-15.8c5.9-3.8,12.6-5.7,20.1-5.7
		c7.4,0,14.1,1.8,20,5.5c5.9,3.7,10.5,8.9,13.8,15.6c3.3,6.7,5,14.3,5,22.7v3.9c0,8.5-1.6,16.2-4.8,22.9c-3.2,6.7-7.8,12-13.7,15.8
		c-5.9,3.8-12.6,5.7-20.1,5.7c-7.5,0-14.2-1.9-20.1-5.6c-5.9-3.7-10.5-8.9-13.8-15.6c-3.3-6.7-5-14.2-5-22.6V557.7z M1060.4,561.2
		c0,7.4,1.5,14.2,4.4,20.3c2.9,6.2,7,11,12.2,14.4c5.2,3.4,11.2,5.2,17.9,5.2c10.1,0,18.4-3.8,24.7-11.4c6.4-7.6,9.6-17.4,9.6-29.4
		v-2.5c0-7.3-1.5-14-4.4-20.2c-3-6.2-7-11-12.3-14.5c-5.2-3.5-11.1-5.2-17.8-5.2c-10.1,0-18.4,3.9-24.8,11.6s-9.6,17.4-9.6,29.1
		V561.2z"/>
	<path class="st6" d="M1194.3,518.3l-5.7-0.5c-7.5,0-13.9,2.4-18.9,7.3c-5.1,4.9-8.4,11.7-10,20.5v58.1h-4.4v-88.8h4.4v18.5
		c2.4-6.2,6-11.1,10.8-14.7c4.8-3.6,10.9-5.4,18.1-5.4c2.6,0,4.6,0.3,6.2,0.9L1194.3,518.3z"/>
	<path class="st6" d="M1228.9,555.8l-0.2,0.2l-12.9,11.1v36.8h-4.4v-126h4.4v84.4l10.4-9.8l40.4-37.3h6.3l-40.8,37.8l43.3,50.9h-5.7
		L1228.9,555.8z"/>
</g>
</svg>
