<?xml version="1.0" encoding="utf-8"?>
<!-- Generator: Adobe Illustrator 25.2.0, SVG Export Plug-In . SVG Version: 6.00 Build 0)  -->
<svg version="1.1" id="Layer_1" xmlns="http://www.w3.org/2000/svg" xmlns:xlink="http://www.w3.org/1999/xlink" x="0px" y="0px"
	 viewBox="0 0 1571.2 666.3" style="enable-background:new 0 0 1571.2 666.3;" xml:space="preserve">
<style type="text/css">
	.st0{fill:url(#SVGID_1_);}
	.st1{fill:url(#SVGID_2_);}
	.st2{fill:url(#SVGID_3_);}
	.st3{fill:url(#SVGID_4_);}
	.st4{fill:#4D4D4D;}
	.st5{enable-background:new    ;}
	.st6{fill:#48BDFE;}
</style>
<linearGradient id="SVGID_1_" gradientUnits="userSpaceOnUse" x1="89.12" y1="668" x2="89.12" y2="231.83" gradientTransform="matrix(1 0 0 -1 0 668)">
	<stop  offset="0" style="stop-color:#8FD7FD"/>
	<stop  offset="1" style="stop-color:#48BDFE"/>
</linearGradient>
<path class="st0" d="M178.1,0C76.7,20.3,0,110.5,0,218.3c0,98.2,64.2,184.8,158.2,213.3c4.9,1.6,9.8,2.9,14.8,3.9l5.2,0.6"/>
<linearGradient id="SVGID_2_" gradientUnits="userSpaceOnUse" x1="267.25" y1="577.7" x2="267.25" y2="62.81" gradientTransform="matrix(1 0 0 -1 0 668)">
	<stop  offset="0" style="stop-color:#D792FD"/>
	<stop  offset="1" style="stop-color:#BF4BFF"/>
</linearGradient>
<path class="st1" d="M178.1,526.9l97.8,78.2l69.7-61.7l-75.1-59c54.2-42.2,86-107.2,85.9-175.9c0-103.8-71-191.2-166.9-215.8
	c-3.6-1.1-8.6-1.8-11.4-2.6"/>
<linearGradient id="SVGID_3_" gradientUnits="userSpaceOnUse" x1="178.1636" y1="577.66" x2="178.1636" y2="231.83" gradientTransform="matrix(1 0 0 -1 0 668)">
	<stop  offset="0" style="stop-color:#AC83FF"/>
	<stop  offset="1" style="stop-color:#7849D8"/>
</linearGradient>
<path class="st2" d="M178.1,90.3C108.4,115,71.8,191.5,96.4,261.2c13.5,38.2,43.5,68.2,81.7,81.7v93.2
	c53.6-18.8,89.5-69.5,89.5-126.4c0-58.6-37.1-107.8-89.5-126.3"/>
<linearGradient id="SVGID_4_" gradientUnits="userSpaceOnUse" x1="254.7799" y1="194.28" x2="286.9096" y2="254.6994" gradientTransform="matrix(1 0 0 -1 0 668)">
	<stop  offset="0" style="stop-color:#A632E6"/>
	<stop  offset="7.000000e-02" style="stop-color:#A734E7;stop-opacity:0.97"/>
	<stop  offset="0.17" style="stop-color:#A938E8;stop-opacity:0.88"/>
	<stop  offset="0.29" style="stop-color:#AC40EB;stop-opacity:0.74"/>
	<stop  offset="0.43" style="stop-color:#B04BEF;stop-opacity:0.55"/>
	<stop  offset="0.58" style="stop-color:#B659F4;stop-opacity:0.3"/>
	<stop  offset="0.73" style="stop-color:#BD69FA;stop-opacity:0"/>
</linearGradient>
<path class="st3" d="M270.5,484.6c12-9.4,23-20,32.9-31.6l-69.6-54.2c-10.1,11.3-22,20.9-35.3,28.2l113.6,90.9l0.4-0.3L270.5,484.6z
	"/>
<path class="st4" d="M894.6,398.3l-12.5,35h-50.7l92.8-248h47.3l92.3,248h-50.3L948,248.1l-38.5,108.1h36.6l14.9,42H894.6z"/>
<path class="st4" d="M852.8,226.3l-14.8-41H668.5l15.3,41h48.4v208h51v-208L852.8,226.3z"/>
<path class="st4" d="M1235.1,226.3l-14.8-41h-172.6l15.3,41h49.2v208h51v-208L1235.1,226.3z"/>
<path class="st4" d="M1569.2,304.2c0-24.3-4.4-45.7-13.2-64.2c-8.8-18.6-21.2-32.8-37.3-42.7c-16-9.9-34.4-14.9-55-14.9
	c-20.6,0-39,5-55,14.9c-16.1,9.9-28.5,24.2-37.3,42.7c-8.8,18.6-13.2,40-13.2,64.4v12.2c0.1,23.8,4.6,44.9,13.4,63.2
	s21.3,32.4,37.4,42.3c16,9.9,34.3,14.8,54.8,14.8c6.3,0,12.5-0.5,18.7-1.5l52.8,42.4l32.5-28.8l-41.2-32.3
	c13.3-10.3,23.6-24,31.1-41.1c7.5-17.1,11.2-37.2,11.2-60.3L1569.2,304.2z M1518.2,316.1c-0.1,25.9-4.8,45.5-14,59
	s-22.4,20.2-39.7,20.2c-17.5,0-31-7-40.3-21c-9.3-14-14-33.7-14-59.1v-12.1c0.1-25.9,4.9-45.5,14.2-58.9
	c9.3-13.4,22.6-20.1,39.8-20.1c17.3,0,30.7,6.8,40,20.3c9.3,13.6,14,33.4,14,59.5L1518.2,316.1z"/>
<path class="st4" d="M1322.2,185.3h-51v248h51V185.3z"/>
<path class="st4" d="M588,369.2c0,8.9-3.4,15.8-10.2,20.7s-16.3,7.4-28.5,7.4c-32.8,0-49.2-13.7-49.2-41.1h-51.4
	c0,16.1,4.1,30.2,12.4,42.4s20.3,21.8,36,28.8c15.7,7,33.1,10.5,52.3,10.5c27.5,0,49.5-6.1,65.8-18.4s24.4-29.1,24.4-50.6
	c0-19.3-6.7-35.5-20-48.5c-13.3-13-34.6-23.9-63.7-32.6c-15.8-4.8-27.8-9.9-36-15.4c-8.2-5.5-12.2-12.2-12.2-20.3
	c-0.2-8.3,3.7-16.1,10.5-20.9c6.9-5.3,16.7-7.9,29.2-7.9c13,0,23.1,3.2,30.2,9.5s10.8,15.2,10.8,26.6h51.2c0-14.9-3.8-28.3-11.5-40
	c-7.7-11.7-18.5-20.8-32.4-27.2c-13.9-6.4-29.7-9.7-47.5-9.6c-17.6,0-33.6,3-47.7,8.9c-14.2,5.9-25.1,14.2-32.6,24.7
	c-7.5,10.4-11.5,23.1-11.4,35.9c0,25.9,14.1,46.4,42.4,61.6c10.4,5.6,24.4,11.2,42.2,17c17.8,5.8,30.1,11.2,36.9,16.4
	C584.6,352.2,588,359.6,588,369.2z"/>
<g class="st5">
	<path class="st6" d="M490.7,596.4l5.4-19.7l28.2-92.4h4.9l28.1,92.4l5.3,19.7l5.6-19.7l24.6-92.4h4.8l-32.2,119.4h-5l-29.6-99.6
		l-4.2-12.6l-4,12.6l-29.9,99.6h-5l-32.2-119.4h4.9l24.8,92.4L490.7,596.4z"/>
</g>
<g class="st5">
	<path class="st6" d="M646.3,605.5c-7.2,0-13.7-1.9-19.7-5.8s-10.7-9.1-14.1-15.9c-3.4-6.7-5.1-14.2-5.1-22.4v-3.7
		c0-8.2,1.6-15.7,4.9-22.6c3.3-6.8,7.8-12.2,13.5-16c5.7-3.8,12-5.7,18.8-5.7c9.9,0,18,3.5,24.3,10.6c6.3,7.1,9.4,16.3,9.4,27.8v4.7
		h-66.5v4.8c0,7.2,1.5,13.9,4.6,20s7.2,11,12.6,14.5c5.3,3.5,11.1,5.2,17.3,5.2c6,0,11-1,15.2-3s7.9-5,11.1-9.2l3.1,2.2
		C669.1,600.7,659.3,605.5,646.3,605.5z M644.6,517.9c-8.6,0-16,3.2-22,9.6c-6,6.4-9.5,14.6-10.6,24.6h61.9V551
		c0-6-1.3-11.6-3.8-16.8s-6-9.2-10.5-12.1C655.1,519.3,650.2,517.9,644.6,517.9z"/>
	<path class="st6" d="M766.9,560.3c0,13.8-3,24.8-8.9,33c-6,8.1-14.1,12.2-24.4,12.2c-6.7,0-12.6-1.4-17.9-4.1s-9.4-6.6-12.4-11.5
		v14h-4.4v-126h4.4v53.4c3.1-5.9,7.2-10.3,12.3-13.3c5.1-3,11-4.5,17.8-4.5c10.4,0,18.6,4,24.5,11.9c6,8,8.9,19.1,8.9,33.5V560.3z
		 M762.3,558.5c0-12.7-2.5-22.7-7.6-29.9c-5.1-7.2-12.1-10.8-21.2-10.8c-7.4,0-13.7,1.9-18.9,5.7c-5.2,3.8-8.9,9.5-11.3,17.1v40.7
		c2.4,6.3,6.1,11.1,11.3,14.6c5.2,3.4,11.5,5.1,19.1,5.1c9.1,0,16.2-3.6,21.2-10.9C759.8,582.8,762.3,572.3,762.3,558.5z"/>
</g>
</svg>
