<svg xmlns="http://www.w3.org/2000/svg" xmlns:xlink="http://www.w3.org/1999/xlink" viewBox="0 0 1569.18 605.19"><defs><style>.a{fill:url(#a);}.b{fill:url(#b);}.c{fill:url(#c);}.d{fill:url(#d);}.e{fill:#4d4d4d;}</style><linearGradient id="a" x1="89.09" x2="89.09" y2="436.17" gradientUnits="userSpaceOnUse"><stop offset="0" stop-color="#8fd7fd"/><stop offset="1" stop-color="#48bdfe"/></linearGradient><linearGradient id="b" x1="267.25" y1="90.34" x2="267.25" y2="605.19" gradientUnits="userSpaceOnUse"><stop offset="0" stop-color="#d792fd"/><stop offset="1" stop-color="#bf4bff"/></linearGradient><linearGradient id="c" x1="178.23" y1="90.34" x2="178.23" y2="436.17" gradientUnits="userSpaceOnUse"><stop offset="0" stop-color="#ac83ff"/><stop offset="1" stop-color="#7849d8"/></linearGradient><linearGradient id="d" x1="254.78" y1="473.72" x2="286.91" y2="413.3" gradientUnits="userSpaceOnUse"><stop offset="0" stop-color="#a632e6"/><stop offset="0.07" stop-color="#a734e7" stop-opacity="0.97"/><stop offset="0.17" stop-color="#a938e8" stop-opacity="0.88"/><stop offset="0.29" stop-color="#ac40eb" stop-opacity="0.74"/><stop offset="0.43" stop-color="#b04bef" stop-opacity="0.55"/><stop offset="0.58" stop-color="#b659f4" stop-opacity="0.3"/><stop offset="0.73" stop-color="#bd69fa" stop-opacity="0"/></linearGradient></defs><title>Asset 3</title><path class="a" d="M178.1,0C76.69,20.3,0,110.52,0,218.34A222.89,222.89,0,0,0,158.18,431.68,127.08,127.08,0,0,0,173,435.56l5.24.61"/><path class="b" d="M178.11,526.94l97.79,78.25,69.68-61.66-75.1-59a222.77,222.77,0,0,0,85.91-175.91c0-103.77-71-191.24-166.86-215.76-3.61-1.05-8.59-1.83-11.42-2.56"/><path class="c" d="M178.11,90.34a133.94,133.94,0,0,0,0,252.59v93.24a133.87,133.87,0,0,0,89.48-126.35c0-58.64-37.15-107.78-89.48-126.27"/><path class="d" d="M270.48,484.57A224.53,224.53,0,0,0,303.35,453l-69.56-54.25A133.76,133.76,0,0,1,198.53,427l113.61,90.92.4-.32Z"/><path class="e" d="M894.58,398.27l-12.45,35H831.47l92.83-248h47.35l92.32,248h-50.35L948,248.13,909.55,356.27h36.63l14.88,42Z"/><path class="e" d="M852.75,226.27l-14.81-41H668.45l15.35,41h48.38v208h51v-208Z"/><path class="e" d="M1235.08,226.27l-14.81-41H1047.63l15.35,41h49.2v208h51v-208Z"/><path class="e" d="M1569.18,304.25q0-36.4-13.19-64.23t-37.26-42.71q-24.07-14.9-55-14.89t-55,14.89q-24.08,14.88-37.26,42.71t-13.19,64.4v12.25q.16,35.74,13.44,63.22t37.44,42.28Q1433.23,437,1464,437a111.73,111.73,0,0,0,18.72-1.53l52.75,42.37,32.5-28.76-41.18-32.33q19.9-15.48,31.14-41.09t11.23-60.33Zm-51,11.9q-.17,38.79-14,59t-39.65,20.25q-26.31,0-40.33-21t-14-59.12V303.16q.18-38.79,14.19-58.87t39.81-20.08q26,0,40,20.34t14,59.47Z"/><path class="e" d="M1322.18,185.27h-51v248h51Z"/><path class="e" d="M588,369.25q0,13.32-10.25,20.74t-28.52,7.43q-49.19,0-49.18-41.15H448.62q0,24.08,12.38,42.35T497,427.39q23.57,10.51,52.26,10.51,41.32,0,65.75-18.36t24.42-50.64q0-29-20-48.5t-63.7-32.61q-23.75-7.17-36-15.37t-12.21-20.33A25,25,0,0,1,518,231.17q10.41-7.93,29.2-7.94,19.47,0,30.23,9.48t10.76,26.56h51.23q0-22.38-11.53-40t-32.36-27.24q-20.84-9.66-47.48-9.65-26.46,0-47.73,8.88T467.67,216a60,60,0,0,0-11.36,35.94q0,38.78,42.35,61.65,15.54,8.37,42.18,17T577.73,347Q588,354.73,588,369.25Z"/></svg>