<svg xmlns="http://www.w3.org/2000/svg" viewBox="0 0 1120.56 295.4"><defs><style>.a{fill:#4d4d4d;}</style></defs><path class="a" d="M446,215.85l-12.45,35H382.85l92.83-248H523l92.32,248H565L499.38,65.71,460.92,173.85h36.63l14.89,42Z"/><path class="a" d="M404.12,43.85l-14.81-41H219.83l15.35,41h48.38v208h51v-208Z"/><path class="a" d="M786.46,43.85l-14.81-41H599l15.34,41h49.21v208h51v-208Z"/><path class="a" d="M1120.56,121.84q0-36.42-13.19-64.24t-37.26-42.71Q1046,0,1015.06,0T960,14.89q-24.07,14.9-37.26,42.71T909.56,122v12.25Q909.72,170,923,197.47t37.44,42.29q24.16,14.81,55,14.8a111.91,111.91,0,0,0,18.72-1.53l52.75,42.37,32.5-28.76-41.18-32.33q19.9-15.48,31.14-41.09t11.23-60.32Zm-51,11.89q-.16,38.79-14,59T1015.9,213q-26.31,0-40.33-21t-14-59.13V120.75q.16-38.79,14.18-58.87t39.82-20.08q26,0,40,20.33t14,59.47Z"/><path class="a" d="M873.56,2.85h-51v248h51Z"/><path class="a" d="M139.35,186.83q0,13.32-10.24,20.75T100.59,215Q51.4,215,51.4,173.85H0q0,24.08,12.38,42.35T48.33,245q23.57,10.5,52.26,10.5,41.32,0,65.74-18.36t24.42-50.63q0-29-20-48.5t-63.69-32.62Q83.34,98.2,71.13,90T58.92,69.68A25,25,0,0,1,69.33,48.76q10.42-7.95,29.21-7.94,19.47,0,30.22,9.47t10.76,26.56h51.23q0-22.38-11.52-40T146.87,9.65Q126,0,99.39,0,72.91,0,51.66,8.88T19,33.56a60,60,0,0,0-11.36,36q0,38.76,42.36,61.65,15.54,8.35,42.18,17t36.89,16.39Q139.35,172.31,139.35,186.83Z"/></svg>